<mxfile host="app.diagrams.net" agent="Mozilla/5.0 (Windows NT 10.0; Win64; x64) AppleWebKit/537.36 (KHTML, like Gecko) Chrome/129.0.0.0 Safari/537.36" version="24.7.17">
  <diagram name="Page-1" id="wH0xJwSM5VSZd1BXKyXg">
    <mxGraphModel dx="3176" dy="2168" grid="0" gridSize="10" guides="1" tooltips="1" connect="1" arrows="1" fold="1" page="0" pageScale="1" pageWidth="850" pageHeight="1100" math="0" shadow="0">
      <root>
        <mxCell id="0" />
        <mxCell id="1" parent="0" />
        <mxCell id="y-DRbudft7XM8Jm8NMXw-1" value="Start" style="whiteSpace=wrap;strokeWidth=2;" vertex="1" parent="1">
          <mxGeometry x="1004" y="164" width="95" height="49" as="geometry" />
        </mxCell>
        <mxCell id="y-DRbudft7XM8Jm8NMXw-2" value="Welcome Message" style="whiteSpace=wrap;strokeWidth=2;" vertex="1" parent="1">
          <mxGeometry x="958" y="263" width="189" height="49" as="geometry" />
        </mxCell>
        <mxCell id="y-DRbudft7XM8Jm8NMXw-3" value="Pilih opsi" style="rhombus;strokeWidth=2;whiteSpace=wrap;" vertex="1" parent="1">
          <mxGeometry x="996" y="361" width="113" height="113" as="geometry" />
        </mxCell>
        <mxCell id="y-DRbudft7XM8Jm8NMXw-4" value="Daftar Akun" style="whiteSpace=wrap;strokeWidth=2;" vertex="1" parent="1">
          <mxGeometry x="482" y="547" width="144" height="49" as="geometry" />
        </mxCell>
        <mxCell id="y-DRbudft7XM8Jm8NMXw-5" value="Login" style="whiteSpace=wrap;strokeWidth=2;" vertex="1" parent="1">
          <mxGeometry x="1003" y="547" width="98" height="49" as="geometry" />
        </mxCell>
        <mxCell id="y-DRbudft7XM8Jm8NMXw-6" value="Exit" style="whiteSpace=wrap;strokeWidth=2;" vertex="1" parent="1">
          <mxGeometry x="1188" y="547" width="88" height="49" as="geometry" />
        </mxCell>
        <mxCell id="y-DRbudft7XM8Jm8NMXw-7" value="Input Username" style="whiteSpace=wrap;strokeWidth=2;" vertex="1" parent="1">
          <mxGeometry x="467" y="645" width="173" height="49" as="geometry" />
        </mxCell>
        <mxCell id="y-DRbudft7XM8Jm8NMXw-8" value="Username sudah ada?" style="rhombus;strokeWidth=2;whiteSpace=wrap;" vertex="1" parent="1">
          <mxGeometry x="452" y="744" width="202" height="202" as="geometry" />
        </mxCell>
        <mxCell id="y-DRbudft7XM8Jm8NMXw-9" value="Print: Username sudah ada" style="whiteSpace=wrap;strokeWidth=2;" vertex="1" parent="1">
          <mxGeometry x="297" y="1115" width="252" height="49" as="geometry" />
        </mxCell>
        <mxCell id="y-DRbudft7XM8Jm8NMXw-10" value="Input Password" style="whiteSpace=wrap;strokeWidth=2;" vertex="1" parent="1">
          <mxGeometry x="600" y="1115" width="167" height="49" as="geometry" />
        </mxCell>
        <mxCell id="y-DRbudft7XM8Jm8NMXw-11" value="Daftar Akun baru" style="whiteSpace=wrap;strokeWidth=2;" vertex="1" parent="1">
          <mxGeometry x="593" y="1341" width="181" height="49" as="geometry" />
        </mxCell>
        <mxCell id="y-DRbudft7XM8Jm8NMXw-12" value="Print: Akun terdaftar" style="whiteSpace=wrap;strokeWidth=2;" vertex="1" parent="1">
          <mxGeometry x="579" y="1515" width="210" height="49" as="geometry" />
        </mxCell>
        <mxCell id="y-DRbudft7XM8Jm8NMXw-13" value="Input Username" style="whiteSpace=wrap;strokeWidth=2;" vertex="1" parent="1">
          <mxGeometry x="965" y="645" width="173" height="49" as="geometry" />
        </mxCell>
        <mxCell id="y-DRbudft7XM8Jm8NMXw-14" value="Input Password" style="whiteSpace=wrap;strokeWidth=2;" vertex="1" parent="1">
          <mxGeometry x="968" y="821" width="167" height="49" as="geometry" />
        </mxCell>
        <mxCell id="y-DRbudft7XM8Jm8NMXw-15" value="Cocokkan Username dan Password" style="rhombus;strokeWidth=2;whiteSpace=wrap;" vertex="1" parent="1">
          <mxGeometry x="931" y="1019" width="241" height="241" as="geometry" />
        </mxCell>
        <mxCell id="y-DRbudft7XM8Jm8NMXw-16" value="Welcome User" style="whiteSpace=wrap;strokeWidth=2;" vertex="1" parent="1">
          <mxGeometry x="852" y="1341" width="163" height="49" as="geometry" />
        </mxCell>
        <mxCell id="y-DRbudft7XM8Jm8NMXw-17" value="Print: Username atau Password salah" style="whiteSpace=wrap;strokeWidth=2;" vertex="1" parent="1">
          <mxGeometry x="1064" y="1333" width="212" height="66" as="geometry" />
        </mxCell>
        <mxCell id="y-DRbudft7XM8Jm8NMXw-18" value="Pilih opsi reservasi" style="rhombus;strokeWidth=2;whiteSpace=wrap;" vertex="1" parent="1">
          <mxGeometry x="843" y="1449" width="181" height="181" as="geometry" />
        </mxCell>
        <mxCell id="y-DRbudft7XM8Jm8NMXw-19" value="Reservasi Meja" style="whiteSpace=wrap;strokeWidth=2;" vertex="1" parent="1">
          <mxGeometry x="47" y="1703" width="165" height="49" as="geometry" />
        </mxCell>
        <mxCell id="y-DRbudft7XM8Jm8NMXw-20" value="Lihat Reservasi" style="whiteSpace=wrap;strokeWidth=2;" vertex="1" parent="1">
          <mxGeometry x="307" y="1703" width="167" height="49" as="geometry" />
        </mxCell>
        <mxCell id="y-DRbudft7XM8Jm8NMXw-21" value="Ubah Meja" style="whiteSpace=wrap;strokeWidth=2;" vertex="1" parent="1">
          <mxGeometry x="865" y="1703" width="136" height="49" as="geometry" />
        </mxCell>
        <mxCell id="y-DRbudft7XM8Jm8NMXw-22" value="Hapus Reservasi" style="whiteSpace=wrap;strokeWidth=2;" vertex="1" parent="1">
          <mxGeometry x="1408" y="1703" width="174" height="49" as="geometry" />
        </mxCell>
        <mxCell id="y-DRbudft7XM8Jm8NMXw-23" value="Logout" style="whiteSpace=wrap;strokeWidth=2;" vertex="1" parent="1">
          <mxGeometry x="1642" y="1703" width="109" height="49" as="geometry" />
        </mxCell>
        <mxCell id="y-DRbudft7XM8Jm8NMXw-24" value="Input Nama dan Hari" style="whiteSpace=wrap;strokeWidth=2;" vertex="1" parent="1">
          <mxGeometry x="26" y="1852" width="208" height="49" as="geometry" />
        </mxCell>
        <mxCell id="y-DRbudft7XM8Jm8NMXw-25" value="Print: Meja berhasil reservasi" style="whiteSpace=wrap;strokeWidth=2;" vertex="1" parent="1">
          <mxGeometry x="30" y="2067" width="201" height="66" as="geometry" />
        </mxCell>
        <mxCell id="y-DRbudft7XM8Jm8NMXw-26" value="Lihat daftar reservasi" style="whiteSpace=wrap;strokeWidth=2;" vertex="1" parent="1">
          <mxGeometry x="284" y="1852" width="214" height="49" as="geometry" />
        </mxCell>
        <mxCell id="y-DRbudft7XM8Jm8NMXw-27" value="Ada reservasi?" style="rhombus;strokeWidth=2;whiteSpace=wrap;" vertex="1" parent="1">
          <mxGeometry x="315" y="2025" width="151" height="151" as="geometry" />
        </mxCell>
        <mxCell id="y-DRbudft7XM8Jm8NMXw-28" value="Print: Daftar Reservasi" style="whiteSpace=wrap;strokeWidth=2;" vertex="1" parent="1">
          <mxGeometry x="138" y="2328" width="221" height="49" as="geometry" />
        </mxCell>
        <mxCell id="y-DRbudft7XM8Jm8NMXw-29" value="Print: Belum ada reservasi" style="whiteSpace=wrap;strokeWidth=2;" vertex="1" parent="1">
          <mxGeometry x="409" y="2328" width="248" height="49" as="geometry" />
        </mxCell>
        <mxCell id="y-DRbudft7XM8Jm8NMXw-30" value="Ada reservasi?" style="rhombus;strokeWidth=2;whiteSpace=wrap;" vertex="1" parent="1">
          <mxGeometry x="858" y="1801" width="151" height="151" as="geometry" />
        </mxCell>
        <mxCell id="y-DRbudft7XM8Jm8NMXw-31" value="Input nomor meja" style="whiteSpace=wrap;strokeWidth=2;" vertex="1" parent="1">
          <mxGeometry x="704" y="2076" width="189" height="49" as="geometry" />
        </mxCell>
        <mxCell id="y-DRbudft7XM8Jm8NMXw-32" value="Print: Tidak ada meja yang direservasi" style="whiteSpace=wrap;strokeWidth=2;" vertex="1" parent="1">
          <mxGeometry x="942" y="2067" width="253" height="66" as="geometry" />
        </mxCell>
        <mxCell id="y-DRbudft7XM8Jm8NMXw-33" value="Nomor meja valid?" style="rhombus;strokeWidth=2;whiteSpace=wrap;" vertex="1" parent="1">
          <mxGeometry x="707" y="2262" width="182" height="182" as="geometry" />
        </mxCell>
        <mxCell id="y-DRbudft7XM8Jm8NMXw-34" value="Input Nomor Meja dan Hari" style="whiteSpace=wrap;strokeWidth=2;" vertex="1" parent="1">
          <mxGeometry x="536" y="2530" width="253" height="49" as="geometry" />
        </mxCell>
        <mxCell id="y-DRbudft7XM8Jm8NMXw-35" value="Print: Meja berhasil diubah" style="whiteSpace=wrap;strokeWidth=2;" vertex="1" parent="1">
          <mxGeometry x="536" y="2629" width="254" height="49" as="geometry" />
        </mxCell>
        <mxCell id="y-DRbudft7XM8Jm8NMXw-36" value="Print: Ulang input" style="whiteSpace=wrap;strokeWidth=2;" vertex="1" parent="1">
          <mxGeometry x="852" y="2530" width="187" height="49" as="geometry" />
        </mxCell>
        <mxCell id="y-DRbudft7XM8Jm8NMXw-37" value="Ada reservasi?" style="rhombus;strokeWidth=2;whiteSpace=wrap;" vertex="1" parent="1">
          <mxGeometry x="1420" y="1801" width="151" height="151" as="geometry" />
        </mxCell>
        <mxCell id="y-DRbudft7XM8Jm8NMXw-38" value="Input nomor reservasi" style="whiteSpace=wrap;strokeWidth=2;" vertex="1" parent="1">
          <mxGeometry x="1245" y="2076" width="216" height="49" as="geometry" />
        </mxCell>
        <mxCell id="y-DRbudft7XM8Jm8NMXw-39" value="Print: Tidak ada meja yang dihapus" style="whiteSpace=wrap;strokeWidth=2;" vertex="1" parent="1">
          <mxGeometry x="1511" y="2067" width="253" height="66" as="geometry" />
        </mxCell>
        <mxCell id="y-DRbudft7XM8Jm8NMXw-40" value="Nomor reservasi valid?" style="rhombus;strokeWidth=2;whiteSpace=wrap;" vertex="1" parent="1">
          <mxGeometry x="1248" y="2248" width="209" height="209" as="geometry" />
        </mxCell>
        <mxCell id="y-DRbudft7XM8Jm8NMXw-41" value="Print: Yakin mau hapus?" style="whiteSpace=wrap;strokeWidth=2;" vertex="1" parent="1">
          <mxGeometry x="1090" y="2530" width="229" height="49" as="geometry" />
        </mxCell>
        <mxCell id="y-DRbudft7XM8Jm8NMXw-42" value="Delete Reservasi" style="whiteSpace=wrap;strokeWidth=2;" vertex="1" parent="1">
          <mxGeometry x="1115" y="2629" width="178" height="49" as="geometry" />
        </mxCell>
        <mxCell id="y-DRbudft7XM8Jm8NMXw-43" value="Print: Ulang input" style="whiteSpace=wrap;strokeWidth=2;" vertex="1" parent="1">
          <mxGeometry x="1388" y="2530" width="187" height="49" as="geometry" />
        </mxCell>
        <mxCell id="y-DRbudft7XM8Jm8NMXw-44" value="Print: Logout" style="whiteSpace=wrap;strokeWidth=2;" vertex="1" parent="1">
          <mxGeometry x="1620" y="1852" width="153" height="49" as="geometry" />
        </mxCell>
        <mxCell id="y-DRbudft7XM8Jm8NMXw-45" value="End" style="whiteSpace=wrap;strokeWidth=2;" vertex="1" parent="1">
          <mxGeometry x="1188" y="645" width="86" height="49" as="geometry" />
        </mxCell>
        <mxCell id="y-DRbudft7XM8Jm8NMXw-46" value="" style="curved=1;startArrow=none;endArrow=block;exitX=0.5;exitY=0.99;entryX=0.5;entryY=-0.01;rounded=0;fontSize=12;startSize=8;endSize=8;" edge="1" parent="1" source="y-DRbudft7XM8Jm8NMXw-1" target="y-DRbudft7XM8Jm8NMXw-2">
          <mxGeometry relative="1" as="geometry">
            <Array as="points" />
          </mxGeometry>
        </mxCell>
        <mxCell id="y-DRbudft7XM8Jm8NMXw-47" value="" style="curved=1;startArrow=none;endArrow=block;exitX=0.5;exitY=0.99;entryX=0.49;entryY=0;rounded=0;fontSize=12;startSize=8;endSize=8;" edge="1" parent="1" source="y-DRbudft7XM8Jm8NMXw-2" target="y-DRbudft7XM8Jm8NMXw-3">
          <mxGeometry relative="1" as="geometry">
            <Array as="points" />
          </mxGeometry>
        </mxCell>
        <mxCell id="y-DRbudft7XM8Jm8NMXw-48" value="1" style="curved=1;startArrow=none;endArrow=block;exitX=0;exitY=0.59;entryX=0.5;entryY=0;rounded=0;fontSize=12;startSize=8;endSize=8;" edge="1" parent="1" source="y-DRbudft7XM8Jm8NMXw-3" target="y-DRbudft7XM8Jm8NMXw-4">
          <mxGeometry relative="1" as="geometry">
            <Array as="points">
              <mxPoint x="554" y="510" />
            </Array>
          </mxGeometry>
        </mxCell>
        <mxCell id="y-DRbudft7XM8Jm8NMXw-49" value="2" style="curved=1;startArrow=none;endArrow=block;exitX=0.49;exitY=1;entryX=0.5;entryY=0;rounded=0;fontSize=12;startSize=8;endSize=8;" edge="1" parent="1" source="y-DRbudft7XM8Jm8NMXw-3" target="y-DRbudft7XM8Jm8NMXw-5">
          <mxGeometry relative="1" as="geometry">
            <Array as="points" />
          </mxGeometry>
        </mxCell>
        <mxCell id="y-DRbudft7XM8Jm8NMXw-50" value="3" style="curved=1;startArrow=none;endArrow=block;exitX=0.99;exitY=0.76;entryX=0.49;entryY=0;rounded=0;fontSize=12;startSize=8;endSize=8;" edge="1" parent="1" source="y-DRbudft7XM8Jm8NMXw-3" target="y-DRbudft7XM8Jm8NMXw-6">
          <mxGeometry relative="1" as="geometry">
            <Array as="points">
              <mxPoint x="1232" y="510" />
            </Array>
          </mxGeometry>
        </mxCell>
        <mxCell id="y-DRbudft7XM8Jm8NMXw-51" value="" style="curved=1;startArrow=none;endArrow=block;exitX=0.5;exitY=0.99;entryX=0.5;entryY=0.01;rounded=0;fontSize=12;startSize=8;endSize=8;" edge="1" parent="1" source="y-DRbudft7XM8Jm8NMXw-4" target="y-DRbudft7XM8Jm8NMXw-7">
          <mxGeometry relative="1" as="geometry">
            <Array as="points" />
          </mxGeometry>
        </mxCell>
        <mxCell id="y-DRbudft7XM8Jm8NMXw-52" value="" style="curved=1;startArrow=none;endArrow=block;exitX=0.5;exitY=1;entryX=0.5;entryY=0;rounded=0;fontSize=12;startSize=8;endSize=8;" edge="1" parent="1" source="y-DRbudft7XM8Jm8NMXw-7" target="y-DRbudft7XM8Jm8NMXw-8">
          <mxGeometry relative="1" as="geometry">
            <Array as="points" />
          </mxGeometry>
        </mxCell>
        <mxCell id="y-DRbudft7XM8Jm8NMXw-53" value="Ya" style="curved=1;startArrow=none;endArrow=block;exitX=0.03;exitY=1;entryX=0.5;entryY=0;rounded=0;fontSize=12;startSize=8;endSize=8;" edge="1" parent="1" source="y-DRbudft7XM8Jm8NMXw-8" target="y-DRbudft7XM8Jm8NMXw-9">
          <mxGeometry relative="1" as="geometry">
            <Array as="points">
              <mxPoint x="424" y="983" />
            </Array>
          </mxGeometry>
        </mxCell>
        <mxCell id="y-DRbudft7XM8Jm8NMXw-54" value="Tidak" style="curved=1;startArrow=none;endArrow=block;exitX=0.98;exitY=1;entryX=0.5;entryY=0;rounded=0;fontSize=12;startSize=8;endSize=8;" edge="1" parent="1" source="y-DRbudft7XM8Jm8NMXw-8" target="y-DRbudft7XM8Jm8NMXw-10">
          <mxGeometry relative="1" as="geometry">
            <Array as="points">
              <mxPoint x="683" y="983" />
            </Array>
          </mxGeometry>
        </mxCell>
        <mxCell id="y-DRbudft7XM8Jm8NMXw-55" value="" style="curved=1;startArrow=none;endArrow=block;exitX=0.5;exitY=1;entryX=0.5;entryY=0.01;rounded=0;fontSize=12;startSize=8;endSize=8;" edge="1" parent="1" source="y-DRbudft7XM8Jm8NMXw-10" target="y-DRbudft7XM8Jm8NMXw-11">
          <mxGeometry relative="1" as="geometry">
            <Array as="points" />
          </mxGeometry>
        </mxCell>
        <mxCell id="y-DRbudft7XM8Jm8NMXw-56" value="" style="curved=1;startArrow=none;endArrow=block;exitX=0.5;exitY=1;entryX=0.5;entryY=0;rounded=0;fontSize=12;startSize=8;endSize=8;" edge="1" parent="1" source="y-DRbudft7XM8Jm8NMXw-11" target="y-DRbudft7XM8Jm8NMXw-12">
          <mxGeometry relative="1" as="geometry">
            <Array as="points" />
          </mxGeometry>
        </mxCell>
        <mxCell id="y-DRbudft7XM8Jm8NMXw-57" value="" style="curved=1;startArrow=none;endArrow=block;exitX=0.5;exitY=0.99;entryX=0.5;entryY=0.01;rounded=0;fontSize=12;startSize=8;endSize=8;" edge="1" parent="1" source="y-DRbudft7XM8Jm8NMXw-5" target="y-DRbudft7XM8Jm8NMXw-13">
          <mxGeometry relative="1" as="geometry">
            <Array as="points" />
          </mxGeometry>
        </mxCell>
        <mxCell id="y-DRbudft7XM8Jm8NMXw-58" value="" style="curved=1;startArrow=none;endArrow=block;exitX=0.5;exitY=1;entryX=0.5;entryY=0;rounded=0;fontSize=12;startSize=8;endSize=8;" edge="1" parent="1" source="y-DRbudft7XM8Jm8NMXw-13" target="y-DRbudft7XM8Jm8NMXw-14">
          <mxGeometry relative="1" as="geometry">
            <Array as="points" />
          </mxGeometry>
        </mxCell>
        <mxCell id="y-DRbudft7XM8Jm8NMXw-59" value="" style="curved=1;startArrow=none;endArrow=block;exitX=0.5;exitY=0.99;entryX=0.5;entryY=0;rounded=0;fontSize=12;startSize=8;endSize=8;" edge="1" parent="1" source="y-DRbudft7XM8Jm8NMXw-14" target="y-DRbudft7XM8Jm8NMXw-15">
          <mxGeometry relative="1" as="geometry">
            <Array as="points" />
          </mxGeometry>
        </mxCell>
        <mxCell id="y-DRbudft7XM8Jm8NMXw-60" value="Sama" style="curved=1;startArrow=none;endArrow=block;exitX=0.12;exitY=1;entryX=0.5;entryY=0.01;rounded=0;fontSize=12;startSize=8;endSize=8;" edge="1" parent="1" source="y-DRbudft7XM8Jm8NMXw-15" target="y-DRbudft7XM8Jm8NMXw-16">
          <mxGeometry relative="1" as="geometry">
            <Array as="points">
              <mxPoint x="933" y="1296" />
            </Array>
          </mxGeometry>
        </mxCell>
        <mxCell id="y-DRbudft7XM8Jm8NMXw-61" value="Tidak" style="curved=1;startArrow=none;endArrow=block;exitX=0.88;exitY=1;entryX=0.5;entryY=-0.01;rounded=0;fontSize=12;startSize=8;endSize=8;" edge="1" parent="1" source="y-DRbudft7XM8Jm8NMXw-15" target="y-DRbudft7XM8Jm8NMXw-17">
          <mxGeometry relative="1" as="geometry">
            <Array as="points">
              <mxPoint x="1171" y="1296" />
            </Array>
          </mxGeometry>
        </mxCell>
        <mxCell id="y-DRbudft7XM8Jm8NMXw-62" value="" style="curved=1;startArrow=none;endArrow=block;exitX=0.5;exitY=1;entryX=0.5;entryY=0;rounded=0;fontSize=12;startSize=8;endSize=8;" edge="1" parent="1" source="y-DRbudft7XM8Jm8NMXw-16" target="y-DRbudft7XM8Jm8NMXw-18">
          <mxGeometry relative="1" as="geometry">
            <Array as="points" />
          </mxGeometry>
        </mxCell>
        <mxCell id="y-DRbudft7XM8Jm8NMXw-63" value="1" style="curved=1;startArrow=none;endArrow=block;exitX=0;exitY=0.58;entryX=0.5;entryY=0;rounded=0;fontSize=12;startSize=8;endSize=8;" edge="1" parent="1" source="y-DRbudft7XM8Jm8NMXw-18" target="y-DRbudft7XM8Jm8NMXw-19">
          <mxGeometry relative="1" as="geometry">
            <Array as="points">
              <mxPoint x="130" y="1666" />
            </Array>
          </mxGeometry>
        </mxCell>
        <mxCell id="y-DRbudft7XM8Jm8NMXw-64" value="2" style="curved=1;startArrow=none;endArrow=block;exitX=0;exitY=0.62;entryX=0.5;entryY=0;rounded=0;fontSize=12;startSize=8;endSize=8;" edge="1" parent="1" source="y-DRbudft7XM8Jm8NMXw-18" target="y-DRbudft7XM8Jm8NMXw-20">
          <mxGeometry relative="1" as="geometry">
            <Array as="points">
              <mxPoint x="391" y="1666" />
            </Array>
          </mxGeometry>
        </mxCell>
        <mxCell id="y-DRbudft7XM8Jm8NMXw-65" value="3" style="curved=1;startArrow=none;endArrow=block;exitX=0.5;exitY=1;entryX=0.5;entryY=0;rounded=0;fontSize=12;startSize=8;endSize=8;" edge="1" parent="1" source="y-DRbudft7XM8Jm8NMXw-18" target="y-DRbudft7XM8Jm8NMXw-21">
          <mxGeometry relative="1" as="geometry">
            <Array as="points" />
          </mxGeometry>
        </mxCell>
        <mxCell id="y-DRbudft7XM8Jm8NMXw-66" value="4" style="curved=1;startArrow=none;endArrow=block;exitX=1;exitY=0.61;entryX=0.5;entryY=0;rounded=0;fontSize=12;startSize=8;endSize=8;" edge="1" parent="1" source="y-DRbudft7XM8Jm8NMXw-18" target="y-DRbudft7XM8Jm8NMXw-22">
          <mxGeometry relative="1" as="geometry">
            <Array as="points">
              <mxPoint x="1495" y="1666" />
            </Array>
          </mxGeometry>
        </mxCell>
        <mxCell id="y-DRbudft7XM8Jm8NMXw-67" value="5" style="curved=1;startArrow=none;endArrow=block;exitX=1;exitY=0.58;entryX=0.5;entryY=0;rounded=0;fontSize=12;startSize=8;endSize=8;" edge="1" parent="1" source="y-DRbudft7XM8Jm8NMXw-18" target="y-DRbudft7XM8Jm8NMXw-23">
          <mxGeometry relative="1" as="geometry">
            <Array as="points">
              <mxPoint x="1697" y="1666" />
            </Array>
          </mxGeometry>
        </mxCell>
        <mxCell id="y-DRbudft7XM8Jm8NMXw-68" value="" style="curved=1;startArrow=none;endArrow=block;exitX=0.5;exitY=0.99;entryX=0.5;entryY=0.01;rounded=0;fontSize=12;startSize=8;endSize=8;" edge="1" parent="1" source="y-DRbudft7XM8Jm8NMXw-19" target="y-DRbudft7XM8Jm8NMXw-24">
          <mxGeometry relative="1" as="geometry">
            <Array as="points" />
          </mxGeometry>
        </mxCell>
        <mxCell id="y-DRbudft7XM8Jm8NMXw-69" value="" style="curved=1;startArrow=none;endArrow=block;exitX=0.5;exitY=1;entryX=0.5;entryY=0;rounded=0;fontSize=12;startSize=8;endSize=8;" edge="1" parent="1" source="y-DRbudft7XM8Jm8NMXw-24" target="y-DRbudft7XM8Jm8NMXw-25">
          <mxGeometry relative="1" as="geometry">
            <Array as="points" />
          </mxGeometry>
        </mxCell>
        <mxCell id="y-DRbudft7XM8Jm8NMXw-70" value="" style="curved=1;startArrow=none;endArrow=block;exitX=0.5;exitY=0.99;entryX=0.5;entryY=0.01;rounded=0;fontSize=12;startSize=8;endSize=8;" edge="1" parent="1" source="y-DRbudft7XM8Jm8NMXw-20" target="y-DRbudft7XM8Jm8NMXw-26">
          <mxGeometry relative="1" as="geometry">
            <Array as="points" />
          </mxGeometry>
        </mxCell>
        <mxCell id="y-DRbudft7XM8Jm8NMXw-71" value="" style="curved=1;startArrow=none;endArrow=block;exitX=0.5;exitY=1;entryX=0.5;entryY=0;rounded=0;fontSize=12;startSize=8;endSize=8;" edge="1" parent="1" source="y-DRbudft7XM8Jm8NMXw-26" target="y-DRbudft7XM8Jm8NMXw-27">
          <mxGeometry relative="1" as="geometry">
            <Array as="points" />
          </mxGeometry>
        </mxCell>
        <mxCell id="y-DRbudft7XM8Jm8NMXw-72" value="Ya" style="curved=1;startArrow=none;endArrow=block;exitX=0;exitY=0.89;entryX=0.5;entryY=0.01;rounded=0;fontSize=12;startSize=8;endSize=8;" edge="1" parent="1" source="y-DRbudft7XM8Jm8NMXw-27" target="y-DRbudft7XM8Jm8NMXw-28">
          <mxGeometry relative="1" as="geometry">
            <Array as="points">
              <mxPoint x="248" y="2212" />
            </Array>
          </mxGeometry>
        </mxCell>
        <mxCell id="y-DRbudft7XM8Jm8NMXw-73" value="Tidak" style="curved=1;startArrow=none;endArrow=block;exitX=1;exitY=0.89;entryX=0.5;entryY=0.01;rounded=0;fontSize=12;startSize=8;endSize=8;" edge="1" parent="1" source="y-DRbudft7XM8Jm8NMXw-27" target="y-DRbudft7XM8Jm8NMXw-29">
          <mxGeometry relative="1" as="geometry">
            <Array as="points">
              <mxPoint x="533" y="2212" />
            </Array>
          </mxGeometry>
        </mxCell>
        <mxCell id="y-DRbudft7XM8Jm8NMXw-74" value="" style="curved=1;startArrow=none;endArrow=block;exitX=0.5;exitY=0.99;entryX=0.5;entryY=0;rounded=0;fontSize=12;startSize=8;endSize=8;" edge="1" parent="1" source="y-DRbudft7XM8Jm8NMXw-21" target="y-DRbudft7XM8Jm8NMXw-30">
          <mxGeometry relative="1" as="geometry">
            <Array as="points" />
          </mxGeometry>
        </mxCell>
        <mxCell id="y-DRbudft7XM8Jm8NMXw-75" value="Ya" style="curved=1;startArrow=none;endArrow=block;exitX=0;exitY=0.91;entryX=0.5;entryY=-0.01;rounded=0;fontSize=12;startSize=8;endSize=8;" edge="1" parent="1" source="y-DRbudft7XM8Jm8NMXw-30" target="y-DRbudft7XM8Jm8NMXw-31">
          <mxGeometry relative="1" as="geometry">
            <Array as="points">
              <mxPoint x="798" y="1988" />
            </Array>
          </mxGeometry>
        </mxCell>
        <mxCell id="y-DRbudft7XM8Jm8NMXw-76" value="Tidak" style="curved=1;startArrow=none;endArrow=block;exitX=1;exitY=0.91;entryX=0.5;entryY=0;rounded=0;fontSize=12;startSize=8;endSize=8;" edge="1" parent="1" source="y-DRbudft7XM8Jm8NMXw-30" target="y-DRbudft7XM8Jm8NMXw-32">
          <mxGeometry relative="1" as="geometry">
            <Array as="points">
              <mxPoint x="1068" y="1988" />
            </Array>
          </mxGeometry>
        </mxCell>
        <mxCell id="y-DRbudft7XM8Jm8NMXw-77" value="" style="curved=1;startArrow=none;endArrow=block;exitX=0.5;exitY=0.99;entryX=0.5;entryY=0;rounded=0;fontSize=12;startSize=8;endSize=8;" edge="1" parent="1" source="y-DRbudft7XM8Jm8NMXw-31" target="y-DRbudft7XM8Jm8NMXw-33">
          <mxGeometry relative="1" as="geometry">
            <Array as="points" />
          </mxGeometry>
        </mxCell>
        <mxCell id="y-DRbudft7XM8Jm8NMXw-78" value="Ya" style="curved=1;startArrow=none;endArrow=block;exitX=0.02;exitY=1;entryX=0.5;entryY=0;rounded=0;fontSize=12;startSize=8;endSize=8;" edge="1" parent="1" source="y-DRbudft7XM8Jm8NMXw-33" target="y-DRbudft7XM8Jm8NMXw-34">
          <mxGeometry relative="1" as="geometry">
            <Array as="points">
              <mxPoint x="663" y="2494" />
            </Array>
          </mxGeometry>
        </mxCell>
        <mxCell id="y-DRbudft7XM8Jm8NMXw-79" value="" style="curved=1;startArrow=none;endArrow=block;exitX=0.5;exitY=0.99;entryX=0.5;entryY=-0.01;rounded=0;fontSize=12;startSize=8;endSize=8;" edge="1" parent="1" source="y-DRbudft7XM8Jm8NMXw-34" target="y-DRbudft7XM8Jm8NMXw-35">
          <mxGeometry relative="1" as="geometry">
            <Array as="points" />
          </mxGeometry>
        </mxCell>
        <mxCell id="y-DRbudft7XM8Jm8NMXw-80" value="Tidak" style="curved=1;startArrow=none;endArrow=block;exitX=1;exitY=0.97;entryX=0.5;entryY=0;rounded=0;fontSize=12;startSize=8;endSize=8;" edge="1" parent="1" source="y-DRbudft7XM8Jm8NMXw-33" target="y-DRbudft7XM8Jm8NMXw-36">
          <mxGeometry relative="1" as="geometry">
            <Array as="points">
              <mxPoint x="946" y="2494" />
            </Array>
          </mxGeometry>
        </mxCell>
        <mxCell id="y-DRbudft7XM8Jm8NMXw-81" value="" style="curved=1;startArrow=none;endArrow=block;exitX=0.5;exitY=0.99;entryX=0.5;entryY=0;rounded=0;fontSize=12;startSize=8;endSize=8;" edge="1" parent="1" source="y-DRbudft7XM8Jm8NMXw-22" target="y-DRbudft7XM8Jm8NMXw-37">
          <mxGeometry relative="1" as="geometry">
            <Array as="points" />
          </mxGeometry>
        </mxCell>
        <mxCell id="y-DRbudft7XM8Jm8NMXw-82" value="Ya" style="curved=1;startArrow=none;endArrow=block;exitX=0;exitY=0.89;entryX=0.5;entryY=-0.01;rounded=0;fontSize=12;startSize=8;endSize=8;" edge="1" parent="1" source="y-DRbudft7XM8Jm8NMXw-37" target="y-DRbudft7XM8Jm8NMXw-38">
          <mxGeometry relative="1" as="geometry">
            <Array as="points">
              <mxPoint x="1353" y="1988" />
            </Array>
          </mxGeometry>
        </mxCell>
        <mxCell id="y-DRbudft7XM8Jm8NMXw-83" value="Tidak" style="curved=1;startArrow=none;endArrow=block;exitX=0.99;exitY=0.89;entryX=0.5;entryY=0;rounded=0;fontSize=12;startSize=8;endSize=8;" edge="1" parent="1" source="y-DRbudft7XM8Jm8NMXw-37" target="y-DRbudft7XM8Jm8NMXw-39">
          <mxGeometry relative="1" as="geometry">
            <Array as="points">
              <mxPoint x="1637" y="1988" />
            </Array>
          </mxGeometry>
        </mxCell>
        <mxCell id="y-DRbudft7XM8Jm8NMXw-84" value="" style="curved=1;startArrow=none;endArrow=block;exitX=0.5;exitY=0.99;entryX=0.5;entryY=0;rounded=0;fontSize=12;startSize=8;endSize=8;" edge="1" parent="1" source="y-DRbudft7XM8Jm8NMXw-38" target="y-DRbudft7XM8Jm8NMXw-40">
          <mxGeometry relative="1" as="geometry">
            <Array as="points" />
          </mxGeometry>
        </mxCell>
        <mxCell id="y-DRbudft7XM8Jm8NMXw-85" value="Ya" style="curved=1;startArrow=none;endArrow=block;exitX=0;exitY=0.98;entryX=0.5;entryY=0;rounded=0;fontSize=12;startSize=8;endSize=8;" edge="1" parent="1" source="y-DRbudft7XM8Jm8NMXw-40" target="y-DRbudft7XM8Jm8NMXw-41">
          <mxGeometry relative="1" as="geometry">
            <Array as="points">
              <mxPoint x="1204" y="2494" />
            </Array>
          </mxGeometry>
        </mxCell>
        <mxCell id="y-DRbudft7XM8Jm8NMXw-86" value="" style="curved=1;startArrow=none;endArrow=block;exitX=0.5;exitY=0.99;entryX=0.5;entryY=-0.01;rounded=0;fontSize=12;startSize=8;endSize=8;" edge="1" parent="1" source="y-DRbudft7XM8Jm8NMXw-41" target="y-DRbudft7XM8Jm8NMXw-42">
          <mxGeometry relative="1" as="geometry">
            <Array as="points" />
          </mxGeometry>
        </mxCell>
        <mxCell id="y-DRbudft7XM8Jm8NMXw-87" value="Tidak" style="curved=1;startArrow=none;endArrow=block;exitX=0.96;exitY=1;entryX=0.5;entryY=0;rounded=0;fontSize=12;startSize=8;endSize=8;" edge="1" parent="1" source="y-DRbudft7XM8Jm8NMXw-40" target="y-DRbudft7XM8Jm8NMXw-43">
          <mxGeometry relative="1" as="geometry">
            <Array as="points">
              <mxPoint x="1482" y="2494" />
            </Array>
          </mxGeometry>
        </mxCell>
        <mxCell id="y-DRbudft7XM8Jm8NMXw-88" value="" style="curved=1;startArrow=none;endArrow=block;exitX=0.5;exitY=0.99;entryX=0.5;entryY=0.01;rounded=0;fontSize=12;startSize=8;endSize=8;" edge="1" parent="1" source="y-DRbudft7XM8Jm8NMXw-23" target="y-DRbudft7XM8Jm8NMXw-44">
          <mxGeometry relative="1" as="geometry">
            <Array as="points" />
          </mxGeometry>
        </mxCell>
        <mxCell id="y-DRbudft7XM8Jm8NMXw-89" value="" style="curved=1;startArrow=none;endArrow=block;exitX=0.49;exitY=0.99;entryX=0.51;entryY=0.01;rounded=0;fontSize=12;startSize=8;endSize=8;" edge="1" parent="1" source="y-DRbudft7XM8Jm8NMXw-6" target="y-DRbudft7XM8Jm8NMXw-45">
          <mxGeometry relative="1" as="geometry">
            <Array as="points" />
          </mxGeometry>
        </mxCell>
      </root>
    </mxGraphModel>
  </diagram>
</mxfile>
